<svg xmlns="http://www.w3.org/2000/svg" fill="none" viewBox="0 0 86 89">
  <defs/>
  <path fill="#00CDE6" d="M37.6 38.7l-6.1-6v38c2.5 1 5 1.6 7.7 2v-30c0-1.5-.6-3-1.6-4z"/>
  <path fill="#00CDE6" d="M32.7 0H16.2v51.7c0 7.2 4 12 7.6 14.8V7.8h7.7v24.8l6.5-6.5c.7-.7 1.2-1.8 1.2-2.9V6.5c0-3.5-3-6.4-6.5-6.4zm37.1 51.8v-6a4 4 0 00-1.2-2.8l-6.4-6.5v13.7c0 3.6-.7 7.4-4.6 10.3l-3.1 2V7.7h7.7v21l6.4-6.5a4 4 0 001.2-3V.2H53.3a6.4 6.4 0 00-6.5 6.4v66.2c11.2-1.4 23-8.8 23-20.9"/>
  <path fill="#00CDE6" d="M8.5 51.7V.1H.8v52.1c0 20.5 18.4 34.4 38.4 36v-7.8C23.6 79 8.5 68.1 8.5 51.7zM77.5 0v51.7c0 16.4-15.1 27.2-30.7 28.7v7.8c20-1.6 38.4-15.5 38.4-36V.1h-7.7z"/>
</svg>
